<svg width="315" height="324" fill="none" xmlns="http://www.w3.org/2000/svg">
  <path d="M134.768 49L315 103l-32.474 165.484L155.876 319 22.732 268.484 0 103l134.768-54z" fill="#E0E0E0"/>
  <path d="M308.52 130.366c2.867-7.515-1.71-15.804-9.597-17.381L219.55 97.11c-8.045-1.61-15.55 4.544-15.55 12.747V235c0 7.18 5.82 13 13 13h37.693a13 13 0 0012.146-8.367l41.681-109.267zM150.075 269.5V297h-15.791v-78.203h26.641c7.734 0 13.893 2.399 18.476 7.197 4.62 4.798 6.929 11.029 6.929 18.692 0 7.662-2.274 13.714-6.821 18.154-4.548 4.44-10.85 6.66-18.906 6.66h-10.528zm0-13.159h10.85c3.008 0 5.335-.985 6.982-2.954 1.647-1.97 2.471-4.834 2.471-8.594 0-3.903-.842-7-2.524-9.292-1.683-2.327-3.939-3.509-6.768-3.545h-11.011v24.385zm39.628 15.065v17.719c-.023 2.66-.756 4.699-2.197 6.117-1.442 1.406-3.51 2.11-6.205 2.11-2.742 0-4.84-.715-6.293-2.145-1.442-1.43-2.162-3.498-2.162-6.205v-17.596h5.203v17.614c0 1.453.234 2.49.703 3.111s1.318.931 2.549.931c1.23 0 2.074-.304 2.531-.914.457-.621.691-1.634.703-3.041v-17.701h5.168zm21.322 22.694c-.996 1.078-2.22 1.892-3.673 2.443-1.442.539-3.024.809-4.747.809-2.941 0-5.226-.909-6.855-2.725-1.629-1.828-2.467-4.482-2.514-7.963v-4.605c0-3.528.768-6.241 2.303-8.139 1.547-1.91 3.797-2.865 6.75-2.865 2.777 0 4.869.685 6.275 2.056 1.418 1.371 2.239 3.522 2.461 6.451h-5.027c-.141-1.628-.48-2.736-1.019-3.322-.54-.597-1.383-.896-2.532-.896-1.394 0-2.408.51-3.041 1.529-.633 1.02-.961 2.643-.984 4.869v4.641c0 2.332.346 4.031 1.037 5.097.703 1.055 1.852 1.582 3.445 1.582 1.02 0 1.846-.205 2.479-.615l.457-.316v-4.693h-3.621v-3.903h8.806V294.1z" fill="#142467"/>
  <path d="M196.51 165.35c1.233-8.74 4.623-15.838 12.852-19.271 3.221-1.339 6.01-3.783 9.185-5.323 3.606-1.758 7.273-3.432 11.08-4.521 2.881-.837 5.563.57 7.273 3.315 1.618 2.578.447 5.006-.909 7.166-1.526 2.427-3.221 4.737-4.931 7.014-2.836 3.784-5.841 7.417-8.599 11.251-2.635 3.667-4.885 7.735-4.5 12.59.848 10.647 5.286 19.471 12.436 26.652.786.77 2.173 1.323 3.19 1.223 4.561-.536 8.707-2.411 12.051-5.877 3.837-3.968 3.251-8.638-1.341-11.535-1.094-.686-2.234-1.322-3.236-2.159-2.805-2.294-3.745-6.211-2.219-9.61.724-1.641 1.541-3.415 2.743-4.604 5.871-5.809 11.635-11.803 17.922-17.093 15.242-12.858 23.069-29.867 24.272-50.46 1.356-22.87-3.529-44.215-14.64-63.753-4.207-7.416-9.107-14.482-16.627-18.147-5.116-2.495-10.726-3.901-16.197-5.458-15.056-4.303-30.25-7.534-45.923-4.654-13.499 2.46-23.377 10.011-27.908 24.426-2.974 9.425-3.683 19.169-2.758 29.147 1.818 19.605 15.148 37.134 32.531 42.323 7.536 2.244 11.65.988 16.181-5.826 3.251-4.905 5.948-10.245 8.861-15.42.431-.77.739-1.657 1.109-2.477.354-.82.74-1.607 1.11-2.428-1.095 8.505-2.913 16.692-7.182 23.991-2.311 3.968-5.393 6.898-9.908 7.333-16.612 1.624-30.636-4.303-40.591-18.818-11.142-16.24-13.592-34.923-10.371-54.595.632-3.884 1.695-7.684 2.45-11.552.509-2.494-.401-4.336-2.666-5.206a25.353 25.353 0 00-3.174-.938c-13.593-3.18-27.339-4.235-41.192-2.712-15.72 1.708-30.59 6.395-43.889 15.889-20.82 14.883-33.718 36.061-40.73 61.676-1.017 3.717-1.17 7.785-1.263 11.703-.062 2.612 1.48 3.298 3.313 1.658 2.019-1.792 3.868-3.834 5.61-5.943 1.617-1.993 2.912-4.27 4.484-6.362 1.217-1.64 2.28-1.39 2.866.653.37 1.239.693 2.461 1.017 3.7 3.637 14.096 9.37 26.953 18.662 37.786 1.294 1.523 2.45 3.783 2.604 5.792.4 5.559.694 11.234.2 16.775-1.017 11.904-2.604 23.757-3.837 35.644-.693 6.713 1.295 10.664 7.104 12.992 4.084 1.624 8.46 2.812 12.775 3.147 6.873.519 13.808.151 20.712.151.184-8.371-.478-16.592 6.765-21.078-1.403-6.211-3.021-12.104-3.992-18.131-.8-5.006-.123-9.928 3.113-14.03 3.036-3.867 6.842-4.922 10.326-2.712 10.494 6.646 21.405 6.68 32.516 2.327 5.1-2.009 8.66-.87 11.481 4.185 3.035 5.441 4.314 11.552 3.975 17.73-.431 7.785-1.679 15.486-2.635 23.238-.524 4.336-.077 5.457 3.884 6.562 8.799 2.428 17.752 2.696 26.752 1.909.478-.05.956-.268 1.264-.352.447-8.119-.339-16.558 8.568-20.877-3.945-9.091-3.406-18.516-2.05-27.942l.031-.083v-.001zm53.197-31.86c-1.31-1.339-2.358-3.432-2.728-5.357-.925-4.822 2.404-11.284 6.257-13.075 2.049-.971 3.837-.62 5.285 1.155a1043.78 1043.78 0 0110.48 13.126 13.621 13.621 0 011.525 2.528c1.387 2.896.57 5.006-2.388 5.793-1.788.485-3.637.585-5.471.87-4.777-.502-9.4-1.373-12.96-5.022v-.018zm-.401-48.2c.015-3.448 2.666-6.328 5.794-6.344 3.221-.017 5.995 3.114 5.887 6.563-.139 3.465-2.789 6.244-5.964 6.177-3.205-.05-5.763-2.896-5.732-6.378l.015-.017z" fill="#777BB4"/>
  <path d="M222 238.54c-21.914 31.755-31.593-49.902-66.961-49.902-35.368 0-43.585 87.706-64.039 49.902 0-43.929 28.671-79.54 64.039-79.54S222 194.611 222 238.54z" fill="#142467"/>
  <path d="M2.172 34.025C.96 27.145 5.401 20.537 12.23 19.06L85.6 3.203c7.792-1.684 15.252 3.98 15.723 11.94l7.891 133.356 7.972 134.732c.442 7.469-5.495 13.768-12.977 13.768h-44.76a13 13 0 01-12.803-10.743L2.172 34.025z" fill="#142467"/>
  <path d="M72.227 206.72l.682 5.559 12.4-1.522.856 6.979-33.87 4.159-1.546-12.586c-.49-4.001.022-7.196 1.539-9.587 1.517-2.39 3.904-3.785 7.16-4.185 2.311-.283 4.304-.017 5.979.801 1.657.804 3.068 2.166 4.232 4.085l12.942-9.027.325-.04.92 7.49-11.62 7.874zm-4.97 6.253l-.692-5.629c-.215-1.753-.823-3.055-1.825-3.908-1.018-.851-2.31-1.181-3.876-.988-1.598.196-2.798.807-3.6 1.835-.805 1.012-1.092 2.456-.862 4.332l.689 5.607 10.166-1.249zm2.537-22.602c-2.496.306-4.781.099-6.853-.623-2.072-.721-3.754-1.916-5.045-3.584-1.293-1.683-2.086-3.718-2.379-6.107-.417-3.396.282-6.292 2.097-8.687 1.814-2.411 4.489-3.96 8.025-4.646l1.716-.258c3.862-.474 7.096.223 9.702 2.091 2.591 1.87 4.11 4.62 4.555 8.249.446 3.629-.361 6.672-2.421 9.129-2.062 2.441-5.093 3.907-9.094 4.399l-.303.037zm-.337-6.783c2.389-.293 4.164-.968 5.325-2.024 1.145-1.053 1.616-2.418 1.41-4.093-.2-1.628-.976-2.823-2.33-3.586-1.368-.761-3.425-.973-6.17-.636-2.342.288-4.1.968-5.275 2.041-1.175 1.073-1.66 2.439-1.456 4.099.201 1.644 1.001 2.836 2.399 3.578 1.382.743 3.414.95 6.097.621zm.396-30.817l-17.532-2.594-.863-7.025 26.213 5.4.788 6.421-24.128 11.581-.862-7.025 16.384-6.758zm5.538-22.782l.829 6.746-25.17 3.09-.829-6.746 25.17-3.09zm-30.807 11.032c-1.008.123-1.878-.108-2.612-.695-.735-.603-1.174-1.485-1.316-2.648-.141-1.148.072-2.103.64-2.865.567-.763 1.355-1.206 2.363-1.33 1.023-.125 1.904.121 2.64.739.736.602 1.173 1.469 1.312 2.601.14 1.133-.074 2.088-.64 2.865-.567.763-1.363 1.207-2.387 1.333zm17.473-14.047c-3.861.474-7.083-.059-9.665-1.6-2.584-1.556-4.067-3.892-4.45-7.01-.339-2.76.343-5.024 2.047-6.792l-2.407.012-.748-6.095 24.332-2.987c2.203-.271 4.18-.002 5.932.806 1.75.793 3.163 2.044 4.239 3.754s1.763 3.782 2.062 6.217c.227 1.845.075 3.69-.454 5.534-.514 1.842-1.297 3.284-2.35 4.326l-4.46-2.475c1.671-1.905 2.36-4.052 2.067-6.44-.219-1.784-.87-3.113-1.953-3.987-1.068-.877-2.479-1.207-4.231-.992l-1.35.166c1.944 1.335 3.07 3.267 3.38 5.795.372 3.024-.506 5.619-2.633 7.785-2.144 2.153-5.17 3.469-9.078 3.949l-.28.034zm-.337-6.783c2.28-.28 4.015-.957 5.206-2.032 1.174-1.073 1.664-2.409 1.468-4.006-.252-2.047-1.2-3.418-2.843-4.114l-10.585 1.3c-1.425 1.088-2.014 2.632-1.769 4.633.198 1.613 1.014 2.803 2.446 3.572 1.43.753 3.456.969 6.078.647zm-3.042-20.36c-2.497.307-4.782.1-6.854-.622-2.072-.721-3.754-1.916-5.045-3.583-1.293-1.684-2.086-3.72-2.379-6.108-.417-3.396.282-6.292 2.098-8.687 1.813-2.411 4.488-3.96 8.025-4.646l1.715-.258c3.862-.474 7.096.223 9.703 2.091 2.59 1.87 4.109 4.62 4.554 8.25.446 3.628-.361 6.671-2.42 9.128-2.062 2.441-5.094 3.907-9.095 4.399l-.302.037zm-.337-6.782c2.388-.293 4.163-.968 5.324-2.023 1.146-1.054 1.616-2.418 1.41-4.093-.2-1.629-.976-2.824-2.33-3.587-1.368-.76-3.425-.973-6.17-.636-2.341.288-4.1.968-5.275 2.041-1.174 1.073-1.66 2.44-1.456 4.1.202 1.643 1.001 2.836 2.399 3.577 1.382.743 3.415.95 6.098.621z" fill="#fff"/>
</svg>
